<svg class="reward-card" viewBox="0 0 720 360" xmlns="http://www.w3.org/2000/svg" aria-hidden="true">
  <rect x="30" y="40" width="660" height="280" rx="34" fill="#FAF7F2" stroke="#E8E3DC"/>
  <g class="reward-card__stamps">
    <g fill="#FF6A1A">
      <circle cx="145" cy="125" r="34"/><circle cx="250" cy="125" r="34"/><circle cx="355" cy="125" r="34"/><circle cx="460" cy="125" r="34"/><circle cx="565" cy="125" r="34"/>
      <circle cx="145" cy="225" r="34"/><circle cx="250" cy="225" r="34"/><circle cx="355" cy="225" r="34"/><circle cx="460" cy="225" r="34"/>
    </g>
    <circle class="reward-card__last" cx="565" cy="225" r="34" fill="#FF6A1A"/>
  </g>
  <g class="reward-card__reward">
    <rect x="495" y="170" width="140" height="95" rx="22" fill="#0F172A"/>
    <path d="M565 188c-14-18-34-3-16 13m16-13c14-18 34-3 16 13" fill="none" stroke="#fff" stroke-width="7" stroke-linecap="round"/>
    <rect x="526" y="201" width="78" height="42" rx="6" fill="#FF6A1A"/>
    <path d="M565 201v42M526 220h78" stroke="#fff" stroke-width="6"/>
  </g>
  <g class="reward-card__sparkles" fill="#FF6A1A">
    <circle cx="640" cy="115" r="5"/><circle cx="612" cy="92" r="4"/><circle cx="660" cy="92" r="4"/>
  </g>
</svg>
